<svg width="10000" height="10000" viewBox="0 0 10000 10000" fill="none" xmlns="http://www.w3.org/2000/svg">
<g clip-path="url(#clip0_708_24)">
<rect width="10000" height="10000" fill="#242424"/>
<rect x="5118" y="1762" width="261" height="89" transform="rotate(-90 5118 1762)" fill="#242424"/>
<rect x="3244" y="1841" width="37" height="100" fill="#242424"/>
<path d="M7227.31 6796.14L7208.2 3784.37L8258.81 4399.87C8419.68 4494.11 8560.96 4609.74 8682.65 4746.76C8806.79 4882.36 8903.9 5030.7 8973.96 5191.77C9044 5349.97 9079.55 5512.25 9080.61 5678.61L9080.91 5725.94C9082.17 5923.86 9042.32 6056.26 8961.38 6123.15C8880.43 6190.03 8784.4 6210.93 8673.28 6185.84L8673.67 6246.08C8762.78 6301.14 8836.01 6378.34 8893.35 6477.66C8953.15 6575.56 8983.46 6689.05 8984.28 6818.12L8990.69 7829.22L8682.57 7648.7L8676.42 6680.63C8675.88 6594.58 8654.42 6516.28 8612.06 6445.74C8572.17 6376.65 8511.39 6318.18 8429.71 6270.33L7531.32 5744L7539.15 6978.83L7227.31 6796.14ZM7529.24 5417.01L8238.31 5832.42C8409.08 5932.46 8539.95 5961.98 8630.92 5920.97C8724.35 5878.55 8770.52 5771.28 8769.42 5599.18L8769.23 5569.07C8768.14 5396.96 8721.51 5236.76 8629.34 5088.46C8537.15 4937.29 8404.43 4810.95 8231.18 4709.46L7522.12 4294.05L7529.24 5417.01Z" fill="#D6D3D6"/>
<path d="M5979.96 6065.36L5962.93 3380.59L5127.64 2891.23L5125.57 2564.24L7107.98 3725.64L7110.06 4052.63L6274.77 3563.28L6291.8 6248.06L5979.96 6065.36Z" fill="#D6D3D6"/>
<rect width="1174.61" height="328.581" transform="matrix(0.862826 0.505488 0.00634412 0.999986 6699.62 3486.45)" fill="#D6D3D6"/>
<path d="M933.191 7804.06L938.789 4750.07L2565.5 3806.9L2564.89 4138.47L1255.22 4897.83L1253.35 5918.73L2457.34 5220.65L2456.73 5552.23L1252.74 6250.31L1250.84 7288.67L2579.38 6518.37L2578.77 6849.94L933.191 7804.06Z" fill="#D6D3D6"/>
<path d="M2880.74 6679.13L2886.34 3625.14L3501.54 3268.44L4425.02 5454.7L4466.35 5528.8L4471.53 2706.04L4784.79 2524.41L4779.04 5659.27L4217.26 5985.09L3225.46 3733.59L3199.18 3670.38L3194 6497.5L2880.74 6679.13Z" fill="#D6D3D6"/>
<path d="M2732.78 3254.91L4876.45 1994.09L4932.79 2424.24L2789.12 3685.06L2732.78 3254.91Z" fill="#242424"/>
<path d="M1243.42 1834.41H3730.38V2268.23H1243.42V1834.41Z" fill="#242424"/>
</g>
<defs>
<clipPath id="clip0_708_24">
<rect width="10000" height="10000" fill="white"/>
</clipPath>
</defs>
</svg>
